<svg width="24" height="24" viewBox="0 0 24 24" fill="none" xmlns="http://www.w3.org/2000/svg">
<g clipPath="url(#clip0_25_65)">
<path d="M12 24C18.3426 24 23.4844 18.6274 23.4844 12C23.4844 5.37258 18.3426 0 12 0C5.65735 0 0.515625 5.37258 0.515625 12C0.515625 18.6274 5.65735 24 12 24Z" fill="#E88102"/>
<path d="M12 22.7344C18.2779 22.7344 23.3672 17.6451 23.3672 11.3672C23.3672 5.08926 18.2779 0 12 0C5.72208 0 0.632812 5.08926 0.632812 11.3672C0.632812 17.6451 5.72208 22.7344 12 22.7344Z" fill="#FDD835"/>
<path opacity="0.5" d="M16.5379 0.942383L1.57539 15.9002C1.07383 14.7518 0.759766 13.5049 0.666016 12.1971L12.8301 0.0283203C14.1379 0.126758 15.3848 0.44082 16.5379 0.942383Z" fill="white"/>
<path opacity="0.5" d="M21.9047 5.78906L6.42187 21.2719C5.45625 20.7281 4.58437 20.0484 3.82031 19.2562L19.8937 3.1875C20.6812 3.94687 21.3609 4.82344 21.9047 5.78906Z" fill="white"/>
<path opacity="0.5" d="M19.4297 2.76091L3.39849 18.7922C3.15005 18.5015 2.91099 18.1969 2.69067 17.8828L18.5204 2.0531C18.8344 2.27341 19.1391 2.51248 19.4297 2.76091Z" fill="white"/>
<path opacity="0.5" d="M23.011 8.5313L9.16411 22.3782C8.74692 22.2704 8.33911 22.1391 7.94067 21.9891L22.6219 7.30786C22.7719 7.7063 22.9032 8.11411 23.011 8.5313Z" fill="white"/>
<path opacity="0.5" d="M23.3672 11.3672C23.3672 11.4469 23.3672 11.5219 23.3625 11.6016C23.2406 5.43281 18.2016 0.46875 12 0.46875C5.79844 0.46875 0.759375 5.43281 0.6375 11.6016C0.6375 11.5219 0.632812 11.4469 0.632812 11.3672C0.632812 5.09063 5.72344 0 12 0C18.2766 0 23.3672 5.09063 23.3672 11.3672Z" fill="white"/>
<path opacity="0.5" d="M21.2344 11.8594C21.2344 16.7766 17.2453 20.7656 12.3281 20.7656C9.56719 20.7656 7.09688 19.5047 5.46094 17.5312C7.0875 19.2891 9.4125 20.3906 12 20.3906C16.9172 20.3906 20.9062 16.4016 20.9062 11.4844C20.9062 9.32812 20.1422 7.35469 18.8672 5.8125C20.3344 7.40156 21.2344 9.525 21.2344 11.8594Z" fill="white"/>
<path d="M12 20.3906C16.9188 20.3906 20.9062 16.4032 20.9062 11.4844C20.9062 6.56559 16.9188 2.57812 12 2.57812C7.08121 2.57812 3.09375 6.56559 3.09375 11.4844C3.09375 16.4032 7.08121 20.3906 12 20.3906Z" fill="#F39E09"/>
<path d="M18.75 5.67188C17.1891 4.32656 15.1594 3.51562 12.9375 3.51562C8.02031 3.51562 4.03125 7.50469 4.03125 12.4219C4.03125 14.6438 4.84219 16.6734 6.1875 18.2344C4.29375 16.5984 3.09375 14.1844 3.09375 11.4844C3.09375 6.56719 7.08281 2.57812 12 2.57812C14.6953 2.57812 17.1141 3.77812 18.75 5.67188Z" fill="#E88102"/>
<path d="M11.4422 9.21563C11.2829 9.39844 11.1985 9.65156 11.1985 9.975C11.1985 10.2984 11.2922 10.5656 11.4797 10.7578C11.6672 10.95 11.9672 11.1328 12.3797 11.3109C12.7922 11.4844 13.1813 11.6672 13.5469 11.8547C13.9125 12.0422 14.2266 12.2578 14.4938 12.4969C14.761 12.7359 14.9672 13.0172 15.1172 13.3359C15.1735 13.4578 15.3422 13.6875 15.3422 13.6875C15.3422 13.6875 15.3422 14.4656 15.3422 14.4891C15.3422 15.2484 15.1032 15.8672 14.6204 16.3453C14.1375 16.8234 13.486 17.1047 12.6563 17.1844V18.5156H11.5969V17.1703C10.6313 17.0672 9.89067 16.7391 9.37036 16.1766C8.85474 15.6141 8.59692 14.8781 8.59692 13.9594V13.2562L10.8375 13.9594C10.8375 14.4656 10.95 14.85 11.175 15.1125C11.4 15.375 11.7188 15.5062 12.1313 15.5062C12.4313 15.5062 12.6704 15.4172 12.8438 15.2344C13.0172 15.0516 13.1016 14.8078 13.1016 14.4938C13.1016 14.1422 13.0172 13.8703 12.8438 13.6688C12.6704 13.4672 12.3657 13.2797 11.9344 13.1016C11.4985 12.9234 11.1 12.7453 10.7297 12.5625C10.3594 12.3797 10.0454 12.1687 9.77817 11.9297C9.51099 11.6906 9.30942 11.4141 9.16411 11.1C9.02349 10.7859 8.95317 10.4062 8.95317 9.95625V9.21094C8.95317 9.21094 9.37036 8.42812 9.71255 8.10469C10.2188 7.61719 10.8938 7.33594 11.7329 7.25625V5.85938H12.7922V7.28906C13.6032 7.41094 14.2407 7.74375 14.7047 8.29219C15.0235 8.66719 15.3985 9.675 15.3985 9.675V10.3781H13.1485C13.1485 9.91875 13.0594 9.5625 12.8813 9.31406C12.7032 9.06562 12.45 8.94375 12.1219 8.94375C11.8313 8.93906 11.6063 9.03281 11.4422 9.21563Z" fill="#DB6704"/>
<path d="M13.1012 13.7953C13.1012 13.4437 13.0168 13.1719 12.8434 12.9703C12.6699 12.7688 12.3652 12.5813 11.934 12.4031C11.498 12.225 11.0996 12.0469 10.7293 11.8641C10.359 11.6813 10.0449 11.4703 9.77773 11.2313C9.51055 10.9922 9.30898 10.7156 9.16367 10.4016C9.02305 10.0875 8.95273 9.70312 8.95273 9.25781C8.95273 8.50781 9.20586 7.88906 9.71211 7.40625C10.2184 6.92344 10.8934 6.6375 11.7324 6.55781V5.15625H12.7918V6.58594C13.6027 6.70781 14.2402 7.04062 14.7043 7.58906C15.1684 8.1375 15.398 8.83125 15.398 9.675H13.148C13.148 9.21562 13.059 8.85937 12.8809 8.61094C12.7027 8.3625 12.4496 8.24063 12.1215 8.24063C11.8309 8.24063 11.6012 8.33437 11.4418 8.51719C11.2824 8.7 11.198 8.95312 11.198 9.27656C11.198 9.6 11.2918 9.86719 11.4793 10.0594C11.6668 10.2516 11.9668 10.4344 12.3746 10.6125C12.7871 10.7859 13.1762 10.9688 13.5418 11.1562C13.9074 11.3438 14.2215 11.5594 14.4887 11.7984C14.7559 12.0375 14.9621 12.3188 15.1121 12.6375C15.2621 12.9563 15.3371 13.3406 15.3371 13.7859C15.3371 14.5453 15.098 15.1641 14.6152 15.6422C14.1324 16.1203 13.4809 16.4016 12.6512 16.4813V17.8125H11.5918V16.4672C10.6262 16.3641 9.88555 16.0359 9.36523 15.4734C8.84961 14.9109 8.5918 14.175 8.5918 13.2562H10.8324C10.8324 13.7625 10.9449 14.1469 11.1699 14.4094C11.3949 14.6719 11.7137 14.8031 12.1262 14.8031C12.4262 14.8031 12.6652 14.7141 12.8387 14.5312C13.0121 14.3484 13.1012 14.1094 13.1012 13.7953Z" fill="#FDD835"/>
<path opacity="0.5" d="M9.71255 7.40625C9.98442 7.14375 10.3079 6.94219 10.6782 6.79688L9.08911 8.39062C9.21099 8.01562 9.41724 7.69219 9.71255 7.40625Z" fill="white"/>
<path opacity="0.5" d="M12.3184 5.15625L11.7324 5.74219V5.15625H12.3184Z" fill="white"/>
<path opacity="0.5" d="M15.0984 12.5953L11.2687 16.425C10.4625 16.289 9.82969 15.9703 9.375 15.4781C9.07969 15.1547 8.86875 14.775 8.74219 14.339L9.82031 13.2609H10.8422C10.8422 13.7672 10.9547 14.1515 11.1797 14.414C11.4047 14.6765 11.7234 14.8078 12.1359 14.8078C12.4359 14.8078 12.675 14.7187 12.8484 14.5359C13.0219 14.3531 13.1063 14.1094 13.1063 13.7953C13.1063 13.4437 13.0219 13.1719 12.8484 12.9703C12.675 12.7687 12.3703 12.5812 11.9391 12.4031C11.6297 12.2765 11.3391 12.15 11.0625 12.0187L12.45 10.6312C12.8391 10.8 13.2047 10.9687 13.5516 11.1469C13.9172 11.3344 14.2312 11.55 14.4984 11.789C14.7516 12.0234 14.9531 12.2906 15.0984 12.5953Z" fill="white"/>
<path opacity="0.5" d="M15.3984 9.67029H13.4062L15.0234 8.0531C15.2719 8.51248 15.3984 9.05154 15.3984 9.67029Z" fill="white"/>
<path opacity="0.5" d="M8.60156 13.2562H8.93438L8.61563 13.575C8.60625 13.4719 8.60156 13.364 8.60156 13.2562Z" fill="white"/>
<path opacity="0.5" d="M11.4797 10.0547C11.5734 10.1532 11.6953 10.2469 11.85 10.3407L10.4625 11.7282C10.2047 11.5829 9.975 11.4188 9.77813 11.236C9.69844 11.1657 9.62812 11.0907 9.5625 11.0157L11.2078 9.37036C11.2219 9.65161 11.3156 9.8813 11.4797 10.0547Z" fill="white"/>
<path opacity="0.5" d="M14.6579 7.53284L13.0922 9.09846C13.05 8.90627 12.9797 8.74221 12.886 8.61096C12.7454 8.41409 12.5579 8.2969 12.3235 8.25471L13.725 6.85315C14.086 7.01721 14.3954 7.24221 14.6579 7.53284Z" fill="white"/>
<path opacity="0.5" d="M12.1125 17.8125L12.6563 17.2688V17.8125H12.1125Z" fill="white"/>
<path opacity="0.5" d="M15.1969 14.7281C15.0797 15.075 14.8875 15.375 14.625 15.6375C14.3625 15.9 14.0485 16.1016 13.6829 16.2422L15.1969 14.7281Z" fill="white"/>
<path opacity="0.25" d="M19.3984 7.05156C13.6328 9.07656 9.00156 13.525 6.73281 19.1734C6.53594 19.0281 6.34375 18.8781 6.15625 18.7141C4.81094 17.1531 4 15.1234 4 12.9062C4 7.98906 7.98906 4 12.9062 4C15.1281 4 17.1578 4.81094 18.7141 6.15625C18.9625 6.44219 19.1875 6.74219 19.3984 7.05156Z" fill="white"/>
</g>
<defs>
<clipPath id="clip0_25_65">
<rect width="24" height="24" fill="white"/>
</clipPath>
</defs>
</svg>
