<svg width="460" height="64" viewBox="0 0 460 64" fill="none" xmlns="http://www.w3.org/2000/svg">
<path d="M454.22 2.66797C454.22 4.14073 455.414 5.33464 456.887 5.33464C458.359 5.33464 459.553 4.14073 459.553 2.66797C459.553 1.19521 458.359 0.00130208 456.887 0.00130208C455.414 0.00130208 454.22 1.19521 454.22 2.66797ZM2.88672 63.668L5.77347 58.668H-3.25959e-05L2.88672 63.668ZM456.887 2.66797H456.387V17.668H456.887H457.387V2.66797H456.887ZM444.887 29.668V29.168H14.8867V29.668V30.168H444.887V29.668ZM2.88672 41.668H2.38672V59.168H2.88672H3.38672V41.668H2.88672ZM14.8867 29.668V29.168C7.98317 29.168 2.38672 34.7644 2.38672 41.668H2.88672H3.38672C3.38672 35.3167 8.53545 30.168 14.8867 30.168V29.668ZM456.887 17.668H456.387C456.387 24.0192 451.238 29.168 444.887 29.168V29.668V30.168C451.79 30.168 457.387 24.5715 457.387 17.668H456.887Z" fill="#025663"/>
</svg>
