<svg width="44" height="44" viewBox="0 0 44 44" fill="none" xmlns="http://www.w3.org/2000/svg">
<rect x="0.5" y="0.5" width="43" height="43" rx="7.5" fill="#33ACE0" fill-opacity="0.2"/>
<rect x="0.5" y="0.5" width="43" height="43" rx="7.5" stroke="url(#paint0_linear_1145_11936)"/>
<path d="M27 29C26.7348 29 26.4804 28.8946 26.2929 28.7071C26.1054 28.5196 26 28.2652 26 28V26C26 25.4696 26.2107 24.9609 26.5858 24.5858C26.9609 24.2107 27.4696 24 28 24H30C30.5304 24 31.0391 24.2107 31.4142 24.5858C31.7893 24.9609 32 25.4696 32 26V28C32 28.2652 31.8946 28.5196 31.7071 28.7071C31.5196 28.8946 31.2652 29 31 29H27Z" stroke="white" stroke-width="1.5" stroke-linecap="round" stroke-linejoin="round"/>
<path d="M27 31V29" stroke="white" stroke-width="1.5" stroke-linecap="round" stroke-linejoin="round"/>
<path d="M29 24V16.5C29 15.5717 28.6313 14.6815 27.9749 14.0251C27.3185 13.3687 26.4283 13 25.5 13C24.5717 13 23.6815 13.3687 23.0251 14.0251C22.3687 14.6815 22 15.5717 22 16.5V27.5C22 28.4283 21.6313 29.3185 20.9749 29.9749C20.3185 30.6313 19.4283 31 18.5 31C17.5717 31 16.6815 30.6313 16.0251 29.9749C15.3687 29.3185 15 28.4283 15 27.5V20" stroke="white" stroke-width="1.5" stroke-linecap="round" stroke-linejoin="round"/>
<path d="M31 31V29" stroke="white" stroke-width="1.5" stroke-linecap="round" stroke-linejoin="round"/>
<path d="M13 15V13" stroke="white" stroke-width="1.5" stroke-linecap="round" stroke-linejoin="round"/>
<path d="M14 20C13.4696 20 12.9609 19.7893 12.5858 19.4142C12.2107 19.0391 12 18.5304 12 18V16C12 15.7348 12.1054 15.4804 12.2929 15.2929C12.4804 15.1054 12.7348 15 13 15H17C17.2652 15 17.5196 15.1054 17.7071 15.2929C17.8946 15.4804 18 15.7348 18 16V18C18 18.5304 17.7893 19.0391 17.4142 19.4142C17.0391 19.7893 16.5304 20 16 20H14Z" stroke="white" stroke-width="1.5" stroke-linecap="round" stroke-linejoin="round"/>
<path d="M17 15V13" stroke="white" stroke-width="1.5" stroke-linecap="round" stroke-linejoin="round"/>
<defs>
<linearGradient id="paint0_linear_1145_11936" x1="0" y1="0" x2="44" y2="44" gradientUnits="userSpaceOnUse">
<stop stop-color="white" stop-opacity="0.4"/>
<stop offset="0.5" stop-color="white" stop-opacity="0"/>
<stop offset="1" stop-color="white" stop-opacity="0.4"/>
</linearGradient>
</defs>
</svg>
