<svg width="40" height="40" viewBox="0 0 40 40" fill="none" xmlns="http://www.w3.org/2000/svg">
<path d="M4.83334 17.3542L7.18686 12.7031C7.35662 12.3676 7.67709 12.1339 8.04858 12.0749C8.41952 12.0158 8.79717 12.1386 9.06256 12.405L12.6273 15.9825L8.98108 20.1053L4.83334 17.3542Z" fill="#4A75B8"/>
<path d="M19.9992 5C19.6361 5.00023 19.2937 5.16867 19.072 5.45625L8.98106 18.5429L1.82195 13.7702C1.42757 13.5073 0.913593 13.5078 0.519844 13.7716C0.126018 14.0354 -0.0701535 14.5104 0.0228148 14.9751L2.68984 28.1939C2.79937 28.7416 3.30311 29.3658 3.86171 29.3658H19.9992L23.5254 17.4507L19.9992 5Z" fill="#33ACE0"/>
<path d="M31.019 20.1054L27.3727 15.9826L30.9375 12.4051C31.2028 12.1387 31.5801 12.0159 31.9515 12.075C32.3229 12.134 32.6434 12.3676 32.8132 12.7033L35.1667 17.3543L31.019 20.1054Z" fill="#385683"/>
<path d="M36.1383 29.3658C36.6969 29.3658 37.2006 28.7416 37.3102 28.1939L39.9772 14.9751C40.0701 14.5104 39.874 14.0354 39.4802 13.7716C39.0863 13.5079 38.5724 13.5073 38.1781 13.7702L31.0189 18.5429L20.928 5.45625C20.7062 5.16852 20.3634 5 20 5V29.3658H36.1383V29.3658Z" fill="#6BCAE0"/>
<path d="M2.68983 33.5734C2.68983 34.2206 3.21452 34.7453 3.86171 34.7453H19.9993L22.5261 31.4695L20.0001 28.1938H2.68983V33.5734Z" fill="#4A75B8"/>
<path d="M20 34.7452H36.1384C36.7855 34.7452 37.3102 34.2205 37.3102 33.5733V28.1938H20V34.7452Z" fill="#385683"/>
<path d="M20 23.8183C18.0561 23.8183 16.4746 22.2368 16.4746 20.2929V19.1633C16.4746 17.2194 18.0561 15.6379 20 15.6379L21.7627 20.1055L20 23.8183Z" fill="#033675"/>
<path d="M23.5254 20.2929V19.1633C23.5254 17.2194 21.9439 15.6379 20 15.6379V23.8183C21.9439 23.8183 23.5254 22.2368 23.5254 20.2929Z" fill="#0F203B"/>
</svg>
