<svg width="247" height="32" viewBox="0 0 247 32" fill="none" xmlns="http://www.w3.org/2000/svg">
<path d="M243.783 2.11345C243.783 1.42969 244.342 0.875 245.032 0.875C245.721 0.875 246.283 1.42969 246.283 2.11345V9.17892C246.283 9.85718 245.724 10.4119 245.032 10.4119C244.339 10.4119 243.783 9.85718 243.783 9.17892V2.11345ZM240.178 4.87868V11.9414C240.178 12.6252 240.737 13.1798 241.427 13.1798C242.117 13.1798 242.679 12.6252 242.679 11.9414V4.87868C242.679 4.19492 242.12 3.64297 241.427 3.64297C240.735 3.64297 240.178 4.19767 240.178 4.87868ZM236.568 2.11345V9.17892C236.568 9.85718 237.13 10.4119 237.823 10.4119C238.515 10.4119 239.074 9.85718 239.074 9.17892V2.11345C239.074 1.42969 238.513 0.875 237.823 0.875C237.133 0.875 236.568 1.42969 236.568 2.11345ZM232.964 6.18852V10.703C232.964 11.3867 233.523 11.9387 234.213 11.9387C234.903 11.9387 235.464 11.3867 235.464 10.703V6.18852C235.464 5.50476 234.905 4.95007 234.213 4.95007C233.52 4.95007 232.964 5.50476 232.964 6.18852Z" fill="white"/>
<path d="M153.019 4.79633C150.093 4.79633 147.969 5.38397 146.492 6.56475C144.428 8.23707 143.288 11.2769 143.288 15.2147C143.288 19.1524 144.428 22.2197 146.522 23.8646C148.032 25.0756 149.663 25.4765 152.834 25.4765H162.008V13.1991H151.909V16.887H157.635V21.7859H153.695C151.694 21.7859 150.372 21.3822 149.57 20.5474C148.646 19.5534 148.092 17.3868 148.092 14.811C148.092 10.2856 149.633 8.48696 153.542 8.48696H162.008V4.79633H153.016H153.019ZM164.866 10.4201V25.4765H168.98V13.6357H170.177C172.203 13.6357 172.819 14.2865 172.819 16.4174V17.222H176.775V15.7364C176.775 13.449 176.47 12.3973 175.548 11.5625C174.6 10.6975 173.463 10.4174 170.943 10.4174H164.866V10.4201ZM183.106 18.0266C183.106 14.9456 184.298 13.4078 186.744 13.4078C189.189 13.4078 190.474 14.9154 190.474 17.903C190.474 20.8907 189.252 22.4916 186.834 22.4916C184.415 22.4916 183.106 20.9511 183.106 18.0266ZM178.916 17.903C178.916 22.7991 181.819 25.6632 186.711 25.6632C191.602 25.6632 194.659 22.7689 194.659 18.1199C194.659 15.9643 194.108 14.2398 192.949 12.7625C191.662 11.1012 189.555 10.2389 186.864 10.2389C182.002 10.2389 178.916 13.1964 178.916 17.9058M207.04 10.4229V22.2637H203.174C201.947 22.2637 201.208 21.4591 201.208 20.0998V10.4229H197.096V19.6989C197.096 21.7996 197.617 23.2852 198.661 24.2737C199.703 25.2019 200.687 25.4792 203.078 25.4792H211.154V10.4229H207.04ZM218.118 13.6357H220.94C223.456 13.6357 224.866 15.1515 224.866 17.8701C224.866 20.8055 223.456 22.2582 220.635 22.2582H218.118V13.6357ZM214.009 10.4229V31.125H218.118V25.471H221.739C224.225 25.471 225.788 24.8833 227.107 23.5241C228.397 22.195 229.073 20.3415 229.073 18.1804C229.073 15.308 228.152 13.081 226.404 11.7217C225.147 10.703 223.977 10.4229 221.188 10.4229H214.009Z" fill="white"/>
<path d="M138.778 25.4765H134.667L131.032 18.7433L129.252 20.6737V25.4765L125.129 25.4655V4.79632H129.252V15.7748L133.737 10.4888H138.424L133.489 15.9533L138.778 25.4765ZM43.1121 24.4302V25.4682L47.2373 25.4792V4.79632H43.1121V24.4302ZM63.2639 25.4682L67.3756 25.4792H67.3865V10.4201H63.2639V25.4682ZM63.253 8.83569H67.3865V4.79632H63.253V8.83569ZM85.518 15.1048C87.5056 16.0192 88.4954 17.6449 88.4954 19.9625C88.4954 21.3163 88.1845 22.4476 87.5493 23.3593C87.0067 24.1474 86.3005 24.6801 85.4362 24.9877C84.561 25.2815 83.2795 25.438 81.5727 25.438H74.5655L70.4429 25.427V4.75787H81.8235C83.6449 4.75787 84.9699 4.96657 85.7988 5.38671C86.7695 5.87824 87.4975 6.67458 87.9882 7.78946C88.3427 8.55285 88.5199 9.36018 88.5199 10.1785C88.5199 11.2577 88.2282 12.2545 87.6638 13.1771C87.0994 14.1108 86.3823 14.7506 85.5207 15.1048H85.518ZM83.6748 19.2073C83.6748 18.3671 83.3831 17.7492 82.7805 17.3593C82.3416 17.0792 81.6245 16.9309 80.6238 16.9309H74.5627V21.7529H80.5284C81.1555 21.7529 81.6163 21.7117 81.9053 21.6485C82.1971 21.5854 82.467 21.4481 82.7178 21.2476C83.364 20.7561 83.6748 20.0751 83.6748 19.2046V19.2073ZM83.6748 10.7112C83.6748 9.87093 83.3831 9.25583 82.7805 8.8659C82.3416 8.58306 81.6245 8.43477 80.6238 8.43477H74.5627V13.2595H80.5284C81.1555 13.2595 81.6163 13.2183 81.8944 13.1552C82.1861 13.092 82.4561 12.9547 82.7178 12.7542C83.364 12.2627 83.6748 11.5817 83.6748 10.7085V10.7112ZM105.474 16.9913V25.4765H96.795C95.2436 25.4765 94.1693 25.427 93.5722 25.3392C92.9778 25.2458 92.457 25.0508 92.0044 24.7488C90.7829 23.9222 90.1722 22.681 90.1722 21.0197C90.1722 20.0037 90.4148 19.1003 90.9029 18.3094C91.3855 17.5186 92.0262 16.9858 92.8169 16.703C93.5204 16.4504 94.6819 16.324 96.3178 16.324H101.365C101.365 15.2696 101.152 14.5556 100.724 14.1877C100.301 13.8224 99.467 13.6384 98.2237 13.6384H91.2601V10.4229H98.2237C99.467 10.4229 100.323 10.4421 100.8 10.4888C101.275 10.5355 101.755 10.6316 102.234 10.7854C104.506 11.6503 105.588 13.7181 105.479 16.9886L105.474 16.9913ZM101.359 19.5424H96.5959L95.9061 19.5286C95.4344 19.5286 95.0609 19.6549 94.7855 19.9076C94.5128 20.1575 94.3738 20.4952 94.3738 20.9181C94.3738 21.4124 94.5401 21.7584 94.8755 21.9588C95.2136 22.1593 95.7861 22.2609 96.5959 22.2609H101.359V19.5424ZM119 10.6673C118.367 10.4998 117.462 10.4174 116.282 10.4174H108.336V25.4737L112.448 25.4792V13.6275H116.042C116.789 13.6275 117.331 13.795 117.664 14.119C117.994 14.454 118.16 14.9867 118.16 15.7309V25.4737L122.272 25.4792V16.2005C122.272 14.108 121.751 12.5812 120.693 11.6174C120.197 11.1561 119.632 10.843 119 10.6645V10.6673ZM36.094 10.4174V22.2691H32.5004C31.7533 22.2691 31.2107 22.1016 30.8781 21.7776C30.5482 21.4426 30.3819 20.9099 30.3819 20.1657V10.4174H26.2702V19.6961C26.2702 21.7886 26.791 23.3154 27.8489 24.2792C28.3451 24.7405 28.9095 25.0536 29.5421 25.2321C30.1746 25.3996 31.0799 25.482 32.2604 25.482H40.2056V10.4229H36.094V10.4174ZM11.5278 20.9346L6.40737 4.79357H0V25.4655L4.17706 25.4792V9.94782L9.25388 25.4792H13.7581L19.1376 9.94782V25.4792H23.3147V4.79632H16.9236L11.5278 20.9373V20.9346ZM60.4965 10.3213L56.7039 10.313V4.77435L52.625 4.78259V10.3213H49.9339V13.5314H52.6168L52.6114 20.1822C52.5595 22.4669 52.8622 23.5186 53.7865 24.3534C54.7381 25.2184 55.8723 25.4957 58.3889 25.4957H60.352V22.2801H59.3377C57.3174 22.2801 56.6984 21.6293 56.6984 19.4957V13.5314H60.4911V10.3213H60.4965Z" fill="url(#paint0_linear_13807_33597)"/>
<defs>
<linearGradient id="paint0_linear_13807_33597" x1="0.00272654" y1="15.1295" x2="138.778" y2="15.1295" gradientUnits="userSpaceOnUse">
<stop offset="0.25" stop-color="#467BFF"/>
<stop offset="1" stop-color="#75D9D9"/>
</linearGradient>
</defs>
</svg>
