<svg width="24" height="24" viewBox="0 0 24 24" fill="none" xmlns="http://www.w3.org/2000/svg">
<path d="M10 16H10.01" stroke="white" stroke-width="1.5" stroke-linecap="round" stroke-linejoin="round"/>
<path d="M2.212 11.577C2.07261 11.8551 2.00002 12.1619 2 12.473V18C2 18.5304 2.21071 19.0391 2.58579 19.4142C2.96086 19.7893 3.46957 20 4 20H20C20.5304 20 21.0391 19.7893 21.4142 19.4142C21.7893 19.0391 22 18.5304 22 18V12.473C22 12.1619 21.9274 11.8551 21.788 11.577L18.55 5.11C18.3844 4.77679 18.1292 4.49637 17.813 4.30028C17.4967 4.10419 17.1321 4.0002 16.76 4H7.24C6.86792 4.0002 6.50326 4.10419 6.18704 4.30028C5.87083 4.49637 5.61558 4.77679 5.45 5.11L2.212 11.577Z" stroke="white" stroke-width="1.5" stroke-linecap="round" stroke-linejoin="round"/>
<path d="M21.9457 12.0132H2.05371" stroke="white" stroke-width="1.5" stroke-linecap="round" stroke-linejoin="round"/>
<path d="M6 16H6.01" stroke="white" stroke-width="1.5" stroke-linecap="round" stroke-linejoin="round"/>
</svg>
