<svg width="310" height="59" viewBox="0 0 310 59" fill="none" xmlns="http://www.w3.org/2000/svg">
<path d="M46.9694 32.7643V25.464L32.5328 22.024L39.6763 11.5687L34.4629 6.3125L11.9141 29.0465L34.5198 51.8374L39.7333 46.5742L32.6681 36.2043L46.9694 32.7643Z" fill="white"/>
<path d="M0 25.3786V32.6788L14.4367 36.1259L7.28599 46.5742L12.4994 51.8374L35.0482 29.0963L12.4496 6.3125L7.22901 11.5687L14.3013 21.9386L0 25.3786Z" fill="white"/>
<path d="M26.612 0H20.3516V6.26039H26.612V0Z" fill="#16E9D7"/>
<path d="M26.612 51.8906H20.3516V58.151H26.612V51.8906Z" fill="#16E9D7"/>
<path d="M70.0971 40.2614C68.6299 40.2614 67.2554 40.1474 65.9734 39.9124C64.6914 39.6845 63.5661 39.2999 62.5903 38.7657C61.6146 38.2316 60.8525 37.5051 60.3112 36.5792C59.7628 35.6533 59.4922 34.5209 59.4922 33.1819C59.4922 33.1321 59.4922 33.0395 59.4922 32.9255C59.4922 32.8543 59.5064 32.7688 59.5207 32.6834H65.3751C65.3537 32.7688 65.3395 32.8543 65.3253 32.9327C65.3181 33.0181 65.311 33.1036 65.311 33.1819C65.311 33.8301 65.4962 34.3428 65.8594 34.7203C66.2226 35.0978 66.7426 35.3756 67.4192 35.5536C68.0886 35.7317 68.8578 35.8171 69.7196 35.8171C70.1398 35.8171 70.5458 35.8029 70.9446 35.7673C71.3435 35.7388 71.7138 35.6747 72.0628 35.5821C72.4118 35.4895 72.7109 35.3684 72.9745 35.2189C73.238 35.0693 73.4374 34.8913 73.5727 34.6847C73.708 34.4782 73.7793 34.2147 73.7793 33.9013C73.7793 33.4597 73.587 33.0965 73.1952 32.7973C72.8035 32.5053 72.2836 32.2632 71.6213 32.0709C70.9589 31.8786 70.2182 31.7076 69.4063 31.551C68.5872 31.3943 67.7397 31.202 66.8565 30.9883C65.9734 30.7675 65.1187 30.504 64.2925 30.1835C63.4664 29.863 62.7185 29.4713 62.0562 28.987C61.3938 28.5027 60.8739 27.8973 60.4822 27.1637C60.0904 26.4301 59.8981 25.5398 59.8981 24.4929C59.8981 23.3177 60.1545 22.3135 60.6673 21.4731C61.1801 20.6327 61.8924 19.9489 62.7897 19.4148C63.6943 18.8806 64.7341 18.4889 65.9235 18.2539C67.1058 18.0117 68.3807 17.8906 69.7481 17.8906C71.1156 17.8906 72.3121 18.0188 73.4801 18.2681C74.6482 18.5174 75.6595 18.9162 76.5355 19.4504C77.4045 19.9845 78.0953 20.6612 78.5939 21.4802C79.0995 22.2993 79.3488 23.275 79.3488 24.4074V24.7849H73.5585V24.5926C73.5585 24.1297 73.4232 23.7166 73.1525 23.3533C72.8819 22.9901 72.4759 22.6981 71.9417 22.4844C71.4076 22.2779 70.731 22.1711 69.9119 22.1711C69.0929 22.1711 68.3735 22.2423 67.8038 22.3918C67.2411 22.5414 66.8067 22.7408 66.5147 23.0043C66.2226 23.2679 66.0731 23.5741 66.0731 23.9302C66.0731 24.3504 66.2725 24.6994 66.6713 24.9843C67.0702 25.2692 67.5972 25.5042 68.2453 25.6894C68.8935 25.8817 69.6342 26.0526 70.4603 26.2093C71.2865 26.366 72.1412 26.5369 73.0243 26.7292C73.9075 26.9144 74.7621 27.1637 75.5883 27.4699C76.4145 27.7762 77.1623 28.1679 77.8247 28.6522C78.487 29.1365 79.0069 29.7277 79.3987 30.4328C79.7833 31.1379 79.9827 31.9997 79.9827 33.0252C79.9827 34.7417 79.5553 36.1376 78.6936 37.206C77.8318 38.2743 76.6638 39.0506 75.1823 39.5349C73.7009 40.0192 72.0058 40.2614 70.0971 40.2614Z" fill="white"/>
<path d="M90.9647 39.8814V23.1443H83.5078V18.2656H104.554V23.1443H97.0684V39.8814H90.9647Z" fill="white"/>
<path d="M104.633 39.8821L113.222 18.2734H120.337L128.927 39.8821H122.445L121.185 36.3282H112.125L110.865 39.8821H104.633ZM113.692 31.891H119.611L118.101 27.5821C118.015 27.3328 117.916 27.0337 117.787 26.699C117.659 26.3642 117.545 25.9939 117.446 25.595C117.339 25.1962 117.225 24.8045 117.097 24.4128C116.968 24.0282 116.854 23.6934 116.748 23.4228H116.562C116.456 23.8216 116.32 24.2703 116.156 24.776C115.986 25.2817 115.829 25.7802 115.686 26.2859C115.537 26.7916 115.38 27.2118 115.216 27.5465L113.706 31.891H113.692Z" fill="white"/>
<path d="M133.109 39.8821V18.2734H146.955C148.55 18.2734 149.882 18.5797 150.95 19.1851C152.019 19.7905 152.824 20.6238 153.358 21.6707C153.892 22.7177 154.163 23.8715 154.163 25.1321C154.163 26.5352 153.835 27.7887 153.187 28.8784C152.539 29.968 151.634 30.8298 150.48 31.4566L154.789 39.8892H148.023L144.469 32.4323H139.185V39.8892H133.109V39.8821ZM139.185 28.0237H145.538C146.271 28.0237 146.862 27.7744 147.297 27.283C147.731 26.7916 147.959 26.1363 147.959 25.3173C147.959 24.8116 147.867 24.37 147.674 23.9783C147.489 23.5937 147.204 23.2946 146.827 23.0809C146.449 22.8744 146.022 22.7675 145.538 22.7675H139.185V28.0237Z" fill="white"/>
<path d="M165.512 39.8814V23.1443H158.055V18.2656H179.101V23.1443H171.615V39.8814H165.512Z" fill="white"/>
<path d="M183.531 39.8821V18.2734H197.377C198.972 18.2734 200.304 18.5797 201.372 19.1851C202.441 19.7905 203.245 20.6238 203.78 21.6707C204.314 22.7177 204.584 23.8715 204.584 25.1321C204.584 26.5352 204.257 27.7887 203.609 28.8784C202.961 29.968 202.056 30.8298 200.902 31.4566L205.211 39.8892H198.445L194.891 32.4323H189.606V39.8892H183.531V39.8821ZM189.606 28.0237H195.959C196.693 28.0237 197.284 27.7744 197.719 27.283C198.153 26.7916 198.381 26.1363 198.381 25.3173C198.381 24.8116 198.288 24.37 198.096 23.9783C197.911 23.5937 197.626 23.2946 197.249 23.0809C196.871 22.8744 196.444 22.7675 195.959 22.7675H189.606V28.0237Z" fill="white"/>
<path d="M208.648 39.8821L217.238 18.2734H224.353L232.942 39.8821H226.461L225.2 36.3282H216.141L214.88 39.8821H208.648ZM217.708 31.891H223.626L222.116 27.5821C222.031 27.3328 221.931 27.0337 221.803 26.699C221.675 26.3642 221.561 25.9939 221.461 25.595C221.354 25.1962 221.24 24.8045 221.112 24.4128C220.984 24.0282 220.87 23.6934 220.763 23.4228H220.578C220.471 23.8216 220.336 24.2703 220.172 24.776C220.001 25.2817 219.844 25.7802 219.702 26.2859C219.552 26.7916 219.396 27.2118 219.232 27.5465L217.722 31.891H217.708Z" fill="white"/>
<path d="M237.125 39.8821V18.2734H246.847C249.283 18.2734 251.341 18.6652 253.029 19.4557C254.717 20.2392 256.013 21.4286 256.918 23.0097C257.822 24.5908 258.271 26.6135 258.271 29.0635C258.271 31.5136 257.822 33.5149 256.918 35.1174C256.013 36.7199 254.717 37.9164 253.029 38.707C251.341 39.4904 249.283 39.8892 246.847 39.8892H237.125V39.8821ZM243.2 35.2598H246.726C247.587 35.2598 248.35 35.1387 249.026 34.8966C249.696 34.6544 250.258 34.2983 250.707 33.8283C251.156 33.3582 251.49 32.7742 251.711 32.0833C251.932 31.3925 252.039 30.6019 252.039 29.7259V28.4368C252.039 27.5536 251.932 26.7702 251.711 26.0793C251.49 25.3885 251.156 24.8045 250.707 24.3344C250.258 23.8643 249.696 23.5082 249.026 23.2661C248.357 23.0239 247.587 22.9029 246.726 22.9029H243.2V35.2669V35.2598Z" fill="white"/>
<path d="M263.625 39.8821V18.2734H282.791V22.8957H269.7V26.6705H280.903V31.1361H269.7V35.2598H282.791V39.8821H263.625Z" fill="white"/>
<path d="M288.32 39.8821V18.2734H302.166C303.761 18.2734 305.093 18.5797 306.161 19.1851C307.23 19.7905 308.034 20.6238 308.569 21.6707C309.103 22.7177 309.373 23.8715 309.373 25.1321C309.373 26.5352 309.046 27.7887 308.398 28.8784C307.75 29.968 306.845 30.8298 305.691 31.4566L310 39.8892H303.234L299.68 32.4323H294.396V39.8892H288.32V39.8821ZM294.388 28.0237H300.741C301.475 28.0237 302.066 27.7744 302.501 27.283C302.935 26.7916 303.163 26.1363 303.163 25.3173C303.163 24.8116 303.07 24.37 302.878 23.9783C302.693 23.5937 302.408 23.2946 302.031 23.0809C301.653 22.8744 301.226 22.7675 300.741 22.7675H294.388V28.0237Z" fill="white"/>
</svg>
