<svg xmlns="http://www.w3.org/2000/svg" version="1.1" viewBox="0 0 527.1 167.3">
  <path d="M334.6 0h5.1v167.3h-5.1z" fill="#fff"/>
  <circle fill="#001ea0" cx="453.6" cy="83.6" r="66.5"/>
  <path d="M453.6 12.7c-39.2 0-71 31.7-71 71s31.7 71 71 71 71-31.7 71-71-31.7-71-71-71Zm0 131.8c-33.6 0-60.8-27.3-60.8-60.8s27.3-60.8 60.8-60.8 60.8 27.3 60.8 60.8-27.3 60.8-60.8 60.8Z"/>
  <path d="M453.6 10.1c-40.6 0-73.5 32.9-73.5 73.5s32.9 73.5 73.5 73.5 73.5-32.9 73.5-73.5-32.9-73.5-73.5-73.5Zm0 144.5c-39.2 0-71-31.7-71-71s31.7-71 71-71 71 31.7 71 71-31.7 71-71 71Z" fill="#001ea0"/>
  <path d="M453.6 22.8c-33.6 0-60.8 27.3-60.8 60.8s27.3 60.8 60.8 60.8 60.8-27.3 60.8-60.8-27.3-60.8-60.8-60.8Zm-35.4 80.7-1.3 15.1c-8.7-9.1-14-21.4-14-35S407.7 59 415.6 50l4.8 10.3c-4.6 6.5-7.3 14.6-7.3 23.2s1.9 14 5.2 19.9Zm13 25.7c-3.4-1.7-6.6-3.8-9.6-6.2l5.4-60.4-7.6-16.3c2.6-2.3 5.4-4.4 8.3-6.2l16 34.3v24l-8.2-17.6-4.3 48.5Zm22.4 5.1c-6.2 0-12.1-1.1-17.4-3l.9-10.6c3.5 1.6 7.3 2.7 11.4 3.2V43.4c-4.3.5-8.3 1.7-12 3.4l-4.3-9.1c6.5-3 13.7-4.8 21.4-4.8s14.9 1.7 21.4 4.8l-4.3 9.1c-3.6-1.7-7.7-2.9-12-3.4v80.5c4-.5 7.8-1.6 11.4-3.2l.9 10.6c-5.4 1.9-11.3 3-17.4 3Zm22.4-5.1-4.3-48.5-8.2 17.6v-24l16-34.3c2.9 1.8 5.7 3.9 8.3 6.2l-7.6 16.3 5.4 60.4c-3 2.4-6.2 4.5-9.6 6.2Zm14.3-10.6-1.3-15.1c3.2-5.9 5.2-12.7 5.2-19.9s-2.7-16.7-7.3-23.2l4.8-10.3c7.9 8.9 12.7 20.7 12.7 33.6s-5.3 25.9-14 35Z" fill="#001ea0"/>
  <path d="m416.9 118.6 1.3-15.1c-3.2-5.9-5.2-12.7-5.2-19.9s2.7-16.7 7.3-23.2l-4.8-10.3c-7.9 8.9-12.7 20.7-12.7 33.6s5.3 25.9 14 35Zm73.4 0c8.7-9.1 14-21.4 14-35S499.5 59 491.6 50l-4.8 10.3c4.6 6.5 7.3 14.6 7.3 23.2s-1.9 14-5.2 19.9l1.3 15.1Zm-70.9-72.4 7.6 16.3-5.4 60.4c3 2.4 6.2 4.5 9.6 6.2l4.3-48.5 8.2 17.6v-24l-16-34.3c-2.9 1.8-5.7 3.9-8.3 6.2Zm44.2 52.1 8.2-17.6 4.3 48.5c3.4-1.7 6.6-3.8 9.6-6.2l-5.4-60.4 7.6-16.3c-2.6-2.3-5.4-4.4-8.3-6.2l-16 34.3v24Zm-31.4-60.6 4.3 9.1c3.6-1.7 7.7-2.9 12-3.4v80.5c-4.1-.5-7.8-1.6-11.4-3.2l-.9 10.6c5.4 1.9 11.3 3 17.4 3s12.1-1.1 17.4-3l-.9-10.6c-3.5 1.6-7.4 2.7-11.4 3.2V43.4c4.3.5 8.3 1.7 12 3.4l4.3-9.1c-6.5-3-13.7-4.8-21.4-4.8s-14.9 1.7-21.4 4.8Z" fill="#fff"/>
  <path d="M32.1 43v71.4l23.7-8V50.9L32.1 43zm-8.4 9.9v71.3L0 116.3V60.8l23.7-7.9z" fill="#bdff08"/>
  <path d="M180.8 56.5c2.8 0 5.1 2.3 5.1 5.1s-2.3 5.1-5.1 5.1h-.5c-2.8 0-5.1-2.3-5.1-5.1s2.3-5.1 5.1-5.1h.5Zm5.1 15.9h-10.7v40.4h10.7V72.4Zm-48.6-14.2h-10.7v54.6h10.7V58.2Zm-64.8.2v32.3c0 14.2 8.9 23.2 23.1 23.2s23.2-9 23.2-23.2V58.4h-10.9v32.2c0 8.9-4.7 13.8-12.3 13.8s-12.2-4.8-12.2-13.8V58.4H72.5Zm76.9 40.7V80.9H143v-8.5h6.4V61.7h10.7v10.7h9.7v8.5h-9.7v17.9c0 3.6 1.8 5.6 5.4 5.6s3.4-.3 4.4-.7v8.6c-1.6.6-4.5 1-7.5 1-8.5 0-13-4.8-13-14.2Zm42.5-26.7h10.3v6.4c1.8-4.4 5.4-7.3 11.5-7.3s10.1 2.7 12.1 7.1c2.3-4.2 6.2-7.1 12.7-7.1 9.5 0 14.2 6.4 14.2 16.1v25.3H242V89.3c0-5.1-2.3-8.4-7.1-8.4s-7.4 3.1-7.4 8.6v23.4h-10.7V89.3c0-5.1-2.3-8.4-7.1-8.4s-7.4 3.1-7.4 8.6v23.4h-10.7V72.5Zm91.6 15-9.8.8c-10.5.8-16 5.1-16 12.8s5.5 12.7 14.1 12.7 10.5-3 12-6.4v5.5h10.3V86.7c0-9.2-6.1-15.2-17.5-15.2s-16.2 5.4-17.5 13.4h10.1c.5-3.1 3.1-5.5 7.4-5.5s6.9 2.6 6.9 6.6v1.5Zm0 9.8c0 5.8-3.4 9.2-8.9 9.2s-6.7-2.3-6.7-5.8 3-5.2 7.9-5.6l7.7-.6v2.7Z" fill="#fff"  fillRule="evenodd"/>
</svg>
