<svg width="24" height="24" viewBox="0 0 24 24" fill="none" xmlns="http://www.w3.org/2000/svg">
<rect x="0.3" y="0.3" width="23.4" height="23.4" rx="11.7" fill="black"/>
<rect x="0.3" y="0.3" width="23.4" height="23.4" rx="11.7" stroke="black" stroke-width="0.6"/>
<rect x="0.3" y="0.3" width="23.4" height="23.4" rx="11.7" stroke="url(#paint0_linear_6073_1791)" stroke-width="0.6"/>
<g clip-path="url(#clip0_6073_1791)">
<path d="M6.56667 9.74657C6.46936 9.30825 6.4843 8.85246 6.6101 8.42146C6.73591 7.99046 6.9685 7.5982 7.28631 7.28105C7.60413 6.9639 7.99687 6.73213 8.42814 6.60723C8.8594 6.48233 9.31522 6.46835 9.75333 6.56657C9.99447 6.18944 10.3267 5.87907 10.7193 5.66409C11.1119 5.44911 11.5524 5.33643 12 5.33643C12.4476 5.33643 12.8881 5.44911 13.2807 5.66409C13.6733 5.87907 14.0055 6.18944 14.2467 6.56657C14.6854 6.46792 15.142 6.48184 15.574 6.60704C16.006 6.73225 16.3992 6.96466 16.7172 7.28267C17.0352 7.60068 17.2677 7.99395 17.3929 8.4259C17.5181 8.85786 17.532 9.31446 17.4333 9.75324C17.8105 9.99437 18.1208 10.3266 18.3358 10.7192C18.5508 11.1118 18.6635 11.5523 18.6635 11.9999C18.6635 12.4475 18.5508 12.888 18.3358 13.2806C18.1208 13.6732 17.8105 14.0054 17.4333 14.2466C17.5316 14.6847 17.5176 15.1405 17.3927 15.5718C17.2678 16.003 17.036 16.3958 16.7189 16.7136C16.4017 17.0314 16.0094 17.264 15.5784 17.3898C15.1474 17.5156 14.6916 17.5305 14.2533 17.4332C14.0125 17.8118 13.6801 18.1235 13.2867 18.3394C12.8934 18.5554 12.452 18.6686 12.0033 18.6686C11.5546 18.6686 11.1132 18.5554 10.7199 18.3394C10.3266 18.1235 9.99416 17.8118 9.75333 17.4332C9.31522 17.5315 8.8594 17.5175 8.42814 17.3926C7.99687 17.2677 7.60413 17.0359 7.28631 16.7188C6.9685 16.4016 6.73591 16.0093 6.6101 15.5783C6.4843 15.1473 6.46936 14.6916 6.56667 14.2532C6.18664 14.0127 5.87361 13.68 5.6567 13.286C5.43979 12.8921 5.32604 12.4496 5.32604 11.9999C5.32604 11.5502 5.43979 11.1077 5.6567 10.7138C5.87361 10.3198 6.18664 9.98707 6.56667 9.74657Z" stroke="white" stroke-linecap="round" stroke-linejoin="round"/>
<path d="M14.6667 9.33325H10.6667C10.313 9.33325 9.97391 9.47373 9.72386 9.72378C9.47381 9.97383 9.33333 10.313 9.33333 10.6666C9.33333 11.0202 9.47381 11.3593 9.72386 11.6094C9.97391 11.8594 10.313 11.9999 10.6667 11.9999H13.3333C13.687 11.9999 14.0261 12.1404 14.2761 12.3904C14.5262 12.6405 14.6667 12.9796 14.6667 13.3333C14.6667 13.6869 14.5262 14.026 14.2761 14.2761C14.0261 14.5261 13.687 14.6666 13.3333 14.6666H9.33333" stroke="white" stroke-linecap="round" stroke-linejoin="round"/>
<path d="M12 16V8" stroke="white" stroke-linecap="round" stroke-linejoin="round"/>
</g>
<defs>
<linearGradient id="paint0_linear_6073_1791" x1="12" y1="-7.15256e-07" x2="12" y2="24" gradientUnits="userSpaceOnUse">
<stop stop-color="white" stop-opacity="0.2"/>
<stop offset="1" stop-color="white" stop-opacity="0.1"/>
</linearGradient>
<clipPath id="clip0_6073_1791">
<rect width="16" height="16" fill="white" transform="translate(4 4)"/>
</clipPath>
</defs>
</svg>
